<svg xmlns="http://www.w3.org/2000/svg" xmlns:xlink="http://www.w3.org/1999/xlink" width="960" height="535"><g transform="translate(40 -120)"><path d="M0 0h1360v1760H0z" fill="#fff"/><path d="M160 600V160" stroke="#000" stroke-width="2" fill="none"/><path d="M160 160l4.64 14.27h-9.28z" stroke="#000" stroke-width="2"/><path d="M130 560h670" stroke="#000" stroke-width="2" fill="none"/><path d="M800 560l-14.27 4.64v-9.28z" stroke="#000" stroke-width="2"/><path d="M160 355.56h640M482.18 560V160" stroke="#666" stroke-width="2" fill="none"/><path d="M-20 220h240v74.8H-20z" fill="none"/><use xlink:href="#a" transform="matrix(1,0,0,1,-15,225) translate(77.33333333333334 24.5)"/><use xlink:href="#b" transform="matrix(1,0,0,1,-15,225) translate(83.91666666666666 48.5)"/><path d="M-20 420h240v74.8H-20z" fill="none"/><use xlink:href="#c" transform="matrix(1,0,0,1,-15,425) translate(85.05555555555556 24.5)"/><use xlink:href="#d" transform="matrix(1,0,0,1,-15,425) translate(89.47222222222223 48.5)"/><path d="M200 560.2h240V635H200z" fill="none"/><use xlink:href="#e" transform="matrix(1,0,0,1,205,565.2) translate(91.13888888888889 36.5)"/><path d="M540 560h240v74.8H540z" fill="none"/><use xlink:href="#f" transform="matrix(1,0,0,1,545,565) translate(85.05555555555556 36.5)"/><path d="M210 140h220v60H210z" fill="none"/><use xlink:href="#g" transform="matrix(1,0,0,1,215,145) translate(78.91666666666666 29)"/><path d="M540 140h240v60H540z" fill="none"/><use xlink:href="#h" transform="matrix(1,0,0,1,545,145) translate(60.61111111111111 29)"/><path d="M180 360h240v60H180z" fill="none"/><use xlink:href="#i" transform="matrix(1,0,0,1,185,365) translate(88.91666666666667 29)"/><path d="M540 360h240v60H540z" fill="none"/><use xlink:href="#j" transform="matrix(1,0,0,1,545,365) translate(75.58333333333333 29)"/><path d="M200 220h240v60H200z" fill="none"/><use xlink:href="#k" transform="matrix(1,0,0,1,205,225) translate(0 17.799999999999997)"/><use xlink:href="#l" transform="matrix(1,0,0,1,205,225) translate(48 17.799999999999997)"/><use xlink:href="#m" transform="matrix(1,0,0,1,205,225) translate(127.85 17.799999999999997)"/><use xlink:href="#n" transform="matrix(1,0,0,1,205,225) translate(143.35 17.799999999999997)"/><use xlink:href="#o" transform="matrix(1,0,0,1,205,225) translate(168.35 17.799999999999997)"/><use xlink:href="#p" transform="matrix(1,0,0,1,205,225) translate(188.35 17.799999999999997)"/><use xlink:href="#q" transform="matrix(1,0,0,1,205,225) translate(0 39.4)"/><use xlink:href="#m" transform="matrix(1,0,0,1,205,225) translate(15 39.4)"/><use xlink:href="#r" transform="matrix(1,0,0,1,205,225) translate(30.5 39.4)"/><use xlink:href="#s" transform="matrix(1,0,0,1,205,225) translate(164.15 39.4)"/><use xlink:href="#t" transform="matrix(1,0,0,1,205,225) translate(190.15 39.4)"/><path d="M200 440h240v60H200z" fill="none"/><g><use xlink:href="#u" transform="matrix(1,0,0,1,205,445) translate(0 28.6)"/><use xlink:href="#m" transform="matrix(1,0,0,1,205,445) translate(15 28.6)"/><use xlink:href="#v" transform="matrix(1,0,0,1,205,445) translate(30.5 28.6)"/></g><path d="M490 187.2h410v139.6H490z" fill="none"/><g><use xlink:href="#w" transform="matrix(1,0,0,1,495,192.2) translate(0 14.600000000000003)"/><use xlink:href="#m" transform="matrix(1,0,0,1,495,192.2) translate(48.95 14.600000000000003)"/><use xlink:href="#x" transform="matrix(1,0,0,1,495,192.2) translate(64.45 14.600000000000003)"/><use xlink:href="#y" transform="matrix(1,0,0,1,495,192.2) translate(0 36.2)"/><use xlink:href="#z" transform="matrix(1,0,0,1,495,192.2) translate(15 36.2)"/><use xlink:href="#A" transform="matrix(1,0,0,1,495,192.2) translate(0 57.800000000000004)"/><use xlink:href="#B" transform="matrix(1,0,0,1,495,192.2) translate(0 79.40000000000002)"/><use xlink:href="#m" transform="matrix(1,0,0,1,495,192.2) translate(49 79.40000000000002)"/><use xlink:href="#C" transform="matrix(1,0,0,1,495,192.2) translate(64.5 79.40000000000002)"/><use xlink:href="#D" transform="matrix(1,0,0,1,495,192.2) translate(0 101.00000000000001)"/><use xlink:href="#E" transform="matrix(1,0,0,1,495,192.2) translate(15 101.00000000000001)"/><use xlink:href="#s" transform="matrix(1,0,0,1,495,192.2) translate(74.80000000000001 101.00000000000001)"/><use xlink:href="#F" transform="matrix(1,0,0,1,495,192.2) translate(100.80000000000001 101.00000000000001)"/><use xlink:href="#D" transform="matrix(1,0,0,1,495,192.2) translate(0 122.60000000000001)"/><use xlink:href="#G" transform="matrix(1,0,0,1,495,192.2) translate(15 122.60000000000001)"/></g><path d="M520 440h240v60H520z" fill="none"/><g><use xlink:href="#u" transform="matrix(1,0,0,1,525,445) translate(0 28.6)"/><use xlink:href="#m" transform="matrix(1,0,0,1,525,445) translate(15 28.6)"/><use xlink:href="#H" transform="matrix(1,0,0,1,525,445) translate(30.5 28.6)"/></g><defs><path d="M230 0l2-204L168 0h-37L68-204 70 0H24v-248h70l56 185 57-185h69V0h-46" id="I"/><path d="M85 4C-2 5 27-109 22-190h50c7 57-23 150 33 157 60-5 35-97 40-157h50l1 190h-47c-2-12 1-28-3-38-12 25-28 42-61 42" id="J"/><path d="M25 0v-261h50V0H25" id="K"/><path d="M115-3C79 11 28 4 28-45v-112H4v-33h27l15-45h31v45h36v33H77v99c-1 23 16 31 38 25v30" id="L"/><path d="M25-224v-37h50v37H25zM25 0v-190h50V0H25" id="M"/><path d="M135-194c53 0 70 44 70 98 0 56-19 98-73 100-31 1-45-17-59-34 3 33 2 69 2 105H25l-1-265h48c2 10 0 23 3 31 11-24 29-35 60-35zM114-30c33 0 39-31 40-66 0-38-9-64-40-64-56 0-55 130 0 130" id="N"/><path d="M185-48c-13 30-37 53-82 52C43 2 14-33 14-96s30-98 90-98c62 0 83 45 84 108H66c0 31 8 55 39 56 18 0 30-7 34-22zm-45-69c5-46-57-63-70-21-2 6-4 13-4 21h74" id="O"/><g id="a"><use transform="matrix(0.05555555555555555,0,0,0.05555555555555555,0,0)" xlink:href="#I"/><use transform="matrix(0.05555555555555555,0,0,0.05555555555555555,16.61111111111111,0)" xlink:href="#J"/><use transform="matrix(0.05555555555555555,0,0,0.05555555555555555,28.777777777777775,0)" xlink:href="#K"/><use transform="matrix(0.05555555555555555,0,0,0.05555555555555555,34.333333333333336,0)" xlink:href="#L"/><use transform="matrix(0.05555555555555555,0,0,0.05555555555555555,40.94444444444444,0)" xlink:href="#M"/><use transform="matrix(0.05555555555555555,0,0,0.05555555555555555,46.5,0)" xlink:href="#N"/><use transform="matrix(0.05555555555555555,0,0,0.05555555555555555,58.666666666666664,0)" xlink:href="#K"/><use transform="matrix(0.05555555555555555,0,0,0.05555555555555555,64.22222222222221,0)" xlink:href="#O"/></g><path d="M128 0H69L1-190h53L99-40l48-150h52" id="P"/><path d="M133-34C117-15 103 5 69 4 32 3 11-16 11-54c-1-60 55-63 116-61 1-26-3-47-28-47-18 1-26 9-28 27l-52-2c7-38 36-58 82-57s74 22 75 68l1 82c-1 14 12 18 25 15v27c-30 8-71 5-69-32zm-48 3c29 0 43-24 42-57-32 0-66-3-65 30 0 17 8 27 23 27" id="Q"/><path d="M137-138c1-29-70-34-71-4 15 46 118 7 119 86 1 83-164 76-172 9l43-7c4 19 20 25 44 25 33 8 57-30 24-41C81-84 22-81 20-136c-2-80 154-74 161-7" id="R"/><g id="b"><use transform="matrix(0.05555555555555555,0,0,0.05555555555555555,0,0)" xlink:href="#P"/><use transform="matrix(0.05555555555555555,0,0,0.05555555555555555,11.11111111111111,0)" xlink:href="#Q"/><use transform="matrix(0.05555555555555555,0,0,0.05555555555555555,22.22222222222222,0)" xlink:href="#K"/><use transform="matrix(0.05555555555555555,0,0,0.05555555555555555,27.77777777777778,0)" xlink:href="#J"/><use transform="matrix(0.05555555555555555,0,0,0.05555555555555555,39.94444444444444,0)" xlink:href="#O"/><use transform="matrix(0.05555555555555555,0,0,0.05555555555555555,51.05555555555556,0)" xlink:href="#R"/></g><path d="M169-182c-1-43-94-46-97-3 18 66 151 10 154 114 3 95-165 93-204 36-6-8-10-19-12-30l50-8c3 46 112 56 116 5-17-69-150-10-154-114-4-87 153-88 188-35 5 8 8 18 10 28" id="S"/><path d="M135-194c87-1 58 113 63 194h-50c-7-57 23-157-34-157-59 0-34 97-39 157H25l-1-190h47c2 12-1 28 3 38 12-26 28-41 61-42" id="T"/><path d="M195-6C206 82 75 100 31 46c-4-6-6-13-8-21l49-6c3 16 16 24 34 25 40 0 42-37 40-79-11 22-30 35-61 35-53 0-70-43-70-97 0-56 18-96 73-97 30 0 46 14 59 34l2-30h47zm-90-29c32 0 41-27 41-63 0-35-9-62-40-62-32 0-39 29-40 63 0 36 9 62 39 62" id="U"/><g id="c"><use transform="matrix(0.05555555555555555,0,0,0.05555555555555555,0,0)" xlink:href="#S"/><use transform="matrix(0.05555555555555555,0,0,0.05555555555555555,13.333333333333332,0)" xlink:href="#M"/><use transform="matrix(0.05555555555555555,0,0,0.05555555555555555,18.888888888888886,0)" xlink:href="#T"/><use transform="matrix(0.05555555555555555,0,0,0.05555555555555555,31.055555555555546,0)" xlink:href="#U"/><use transform="matrix(0.05555555555555555,0,0,0.05555555555555555,43.222222222222214,0)" xlink:href="#K"/><use transform="matrix(0.05555555555555555,0,0,0.05555555555555555,48.77777777777777,0)" xlink:href="#O"/></g><g id="d"><use transform="matrix(0.05555555555555555,0,0,0.05555555555555555,0,0)" xlink:href="#P"/><use transform="matrix(0.05555555555555555,0,0,0.05555555555555555,11.11111111111111,0)" xlink:href="#Q"/><use transform="matrix(0.05555555555555555,0,0,0.05555555555555555,22.22222222222222,0)" xlink:href="#K"/><use transform="matrix(0.05555555555555555,0,0,0.05555555555555555,27.77777777777778,0)" xlink:href="#J"/><use transform="matrix(0.05555555555555555,0,0,0.05555555555555555,39.94444444444444,0)" xlink:href="#O"/></g><path d="M123 10C108 53 80 86 19 72V37c35 8 53-11 59-39L3-190h52l48 148c12-52 28-100 44-148h51" id="V"/><path d="M190-63c-7 42-38 67-86 67-59 0-84-38-90-98-12-110 154-137 174-36l-49 2c-2-19-15-32-35-32-30 0-35 28-38 64-6 74 65 87 74 30" id="W"/><g id="e"><use transform="matrix(0.05555555555555555,0,0,0.05555555555555555,0,0)" xlink:href="#S"/><use transform="matrix(0.05555555555555555,0,0,0.05555555555555555,13.333333333333332,0)" xlink:href="#V"/><use transform="matrix(0.05555555555555555,0,0,0.05555555555555555,24.444444444444443,0)" xlink:href="#T"/><use transform="matrix(0.05555555555555555,0,0,0.05555555555555555,36.61111111111111,0)" xlink:href="#W"/></g><path d="M199 0l-22-63H83L61 0H9l90-248h61L250 0h-51zm-33-102l-36-108c-10 38-24 72-36 108h72" id="X"/><g id="f"><use transform="matrix(0.05555555555555555,0,0,0.05555555555555555,0,0)" xlink:href="#X"/><use transform="matrix(0.05555555555555555,0,0,0.05555555555555555,14.388888888888888,0)" xlink:href="#R"/><use transform="matrix(0.05555555555555555,0,0,0.05555555555555555,25.5,0)" xlink:href="#V"/><use transform="matrix(0.05555555555555555,0,0,0.05555555555555555,36.611111111111114,0)" xlink:href="#T"/><use transform="matrix(0.05555555555555555,0,0,0.05555555555555555,48.77777777777778,0)" xlink:href="#W"/></g><path fill="#00624f" d="M199 0l-22-63H83L61 0H9l90-248h61L250 0h-51zm-33-102l-36-108c-10 38-24 72-36 108h72" id="Y"/><path fill="#00624f" d="M135-150c-39-12-60 13-60 57V0H25l-1-190h47c2 13-1 29 3 40 6-28 27-53 61-41v41" id="Z"/><path fill="#00624f" d="M133-34C117-15 103 5 69 4 32 3 11-16 11-54c-1-60 55-63 116-61 1-26-3-47-28-47-18 1-26 9-28 27l-52-2c7-38 36-58 82-57s74 22 75 68l1 82c-1 14 12 18 25 15v27c-30 8-71 5-69-32zm-48 3c29 0 43-24 42-57-32 0-66-3-65 30 0 17 8 27 23 27" id="aa"/><path fill="#00624f" d="M123 10C108 53 80 86 19 72V37c35 8 53-11 59-39L3-190h52l48 148c12-52 28-100 44-148h51" id="ab"/><g id="g"><use transform="matrix(0.05555555555555555,0,0,0.05555555555555555,0,0)" xlink:href="#Y"/><use transform="matrix(0.05555555555555555,0,0,0.05555555555555555,14.388888888888888,0)" xlink:href="#Z"/><use transform="matrix(0.05555555555555555,0,0,0.05555555555555555,22.166666666666664,0)" xlink:href="#Z"/><use transform="matrix(0.05555555555555555,0,0,0.05555555555555555,29.944444444444443,0)" xlink:href="#aa"/><use transform="matrix(0.05555555555555555,0,0,0.05555555555555555,41.05555555555556,0)" xlink:href="#ab"/></g><path fill="#00624f" d="M140-251c80 0 125 45 125 126S219 4 139 4C58 4 15-44 15-125s44-126 125-126zm-1 214c52 0 73-35 73-88 0-50-21-86-72-86-52 0-73 35-73 86s22 88 72 88" id="ac"/><path fill="#00624f" d="M135-194c52 0 70 43 70 98 0 56-19 99-73 100-30 1-46-15-58-35L72 0H24l1-261h50v104c11-23 29-37 60-37zM114-30c31 0 40-27 40-66 0-37-7-63-39-63s-41 28-41 65c0 36 8 64 40 64" id="ad"/><path fill="#00624f" d="M137-138c1-29-70-34-71-4 15 46 118 7 119 86 1 83-164 76-172 9l43-7c4 19 20 25 44 25 33 8 57-30 24-41C81-84 22-81 20-136c-2-80 154-74 161-7" id="ae"/><path fill="#00624f" d="M185-48c-13 30-37 53-82 52C43 2 14-33 14-96s30-98 90-98c62 0 83 45 84 108H66c0 31 8 55 39 56 18 0 30-7 34-22zm-45-69c5-46-57-63-70-21-2 6-4 13-4 21h74" id="af"/><path fill="#00624f" d="M128 0H69L1-190h53L99-40l48-150h52" id="ag"/><path fill="#00624f" d="M25 0v-261h50V0H25" id="ah"/><g id="h"><use transform="matrix(0.05555555555555555,0,0,0.05555555555555555,0,0)" xlink:href="#ac"/><use transform="matrix(0.05555555555555555,0,0,0.05555555555555555,15.555555555555555,0)" xlink:href="#ad"/><use transform="matrix(0.05555555555555555,0,0,0.05555555555555555,27.72222222222222,0)" xlink:href="#ae"/><use transform="matrix(0.05555555555555555,0,0,0.05555555555555555,38.83333333333333,0)" xlink:href="#af"/><use transform="matrix(0.05555555555555555,0,0,0.05555555555555555,49.94444444444444,0)" xlink:href="#Z"/><use transform="matrix(0.05555555555555555,0,0,0.05555555555555555,57.72222222222222,0)" xlink:href="#ag"/><use transform="matrix(0.05555555555555555,0,0,0.05555555555555555,68.83333333333333,0)" xlink:href="#aa"/><use transform="matrix(0.05555555555555555,0,0,0.05555555555555555,79.94444444444444,0)" xlink:href="#ad"/><use transform="matrix(0.05555555555555555,0,0,0.05555555555555555,92.11111111111111,0)" xlink:href="#ah"/><use transform="matrix(0.05555555555555555,0,0,0.05555555555555555,97.66666666666667,0)" xlink:href="#af"/></g><path fill="#00624f" d="M147 0H94L2-248h55l64 206c17-72 42-137 63-206h54" id="ai"/><path fill="#00624f" d="M85 4C-2 5 27-109 22-190h50c7 57-23 150 33 157 60-5 35-97 40-157h50l1 190h-47c-2-12 1-28-3-38-12 25-28 42-61 42" id="aj"/><g id="i"><use transform="matrix(0.05555555555555555,0,0,0.05555555555555555,0,0)" xlink:href="#ai"/><use transform="matrix(0.05555555555555555,0,0,0.05555555555555555,12.222222222222221,0)" xlink:href="#aa"/><use transform="matrix(0.05555555555555555,0,0,0.05555555555555555,23.333333333333332,0)" xlink:href="#ah"/><use transform="matrix(0.05555555555555555,0,0,0.05555555555555555,28.888888888888886,0)" xlink:href="#aj"/><use transform="matrix(0.05555555555555555,0,0,0.05555555555555555,41.05555555555555,0)" xlink:href="#af"/></g><path fill="#00624f" d="M24-248c93 1 206-16 204 79-1 75-69 88-152 82V0H24v-248zm52 121c47 0 100 7 100-41 0-47-54-39-100-39v80" id="ak"/><path fill="#00624f" d="M110-194c64 0 96 36 96 99 0 64-35 99-97 99-61 0-95-36-95-99 0-62 34-99 96-99zm-1 164c35 0 45-28 45-65 0-40-10-65-43-65-34 0-45 26-45 65 0 36 10 65 43 65" id="al"/><path fill="#00624f" d="M220-157c-53 9-28 100-34 157h-49v-107c1-27-5-49-29-50C55-147 81-57 75 0H25l-1-190h47c2 12-1 28 3 38 10-53 101-56 108 0 13-22 24-43 59-42 82 1 51 116 57 194h-49v-107c-1-25-5-48-29-50" id="am"/><path fill="#00624f" d="M25-224v-37h50v37H25zM25 0v-190h50V0H25" id="an"/><g id="j"><use transform="matrix(0.05555555555555555,0,0,0.05555555555555555,0,0)" xlink:href="#ak"/><use transform="matrix(0.05555555555555555,0,0,0.05555555555555555,13.333333333333332,0)" xlink:href="#Z"/><use transform="matrix(0.05555555555555555,0,0,0.05555555555555555,21.11111111111111,0)" xlink:href="#al"/><use transform="matrix(0.05555555555555555,0,0,0.05555555555555555,33.27777777777778,0)" xlink:href="#am"/><use transform="matrix(0.05555555555555555,0,0,0.05555555555555555,51.05555555555556,0)" xlink:href="#an"/><use transform="matrix(0.05555555555555555,0,0,0.05555555555555555,56.611111111111114,0)" xlink:href="#ae"/><use transform="matrix(0.05555555555555555,0,0,0.05555555555555555,67.72222222222223,0)" xlink:href="#af"/></g><path fill="#333" d="M96-169c-40 0-48 33-48 73s9 75 48 75c24 0 41-14 43-38l32 2c-6 37-31 61-74 61-59 0-76-41-82-99-10-93 101-131 147-64 4 7 5 14 7 22l-32 3c-4-21-16-35-41-35" id="ao"/><path fill="#333" d="M100-194c62-1 85 37 85 99 1 63-27 99-86 99S16-35 15-95c0-66 28-99 85-99zM99-20c44 1 53-31 53-75 0-43-8-75-51-75s-53 32-53 75 10 74 51 75" id="ap"/><path fill="#333" d="M117-194c89-4 53 116 60 194h-32v-121c0-31-8-49-39-48C34-167 62-67 57 0H25l-1-190h30c1 10-1 24 2 32 11-22 29-35 61-36" id="aq"/><path fill="#333" d="M135-143c-3-34-86-38-87 0 15 53 115 12 119 90S17 21 10-45l28-5c4 36 97 45 98 0-10-56-113-15-118-90-4-57 82-63 122-42 12 7 21 19 24 35" id="ar"/><path fill="#333" d="M59-47c-2 24 18 29 38 22v24C64 9 27 4 27-40v-127H5v-23h24l9-43h21v43h35v23H59v120" id="as"/><g id="k"><use transform="matrix(0.05,0,0,0.05,0,0)" xlink:href="#ao"/><use transform="matrix(0.05,0,0,0.05,9,0)" xlink:href="#ap"/><use transform="matrix(0.05,0,0,0.05,19,0)" xlink:href="#aq"/><use transform="matrix(0.05,0,0,0.05,29,0)" xlink:href="#ar"/><use transform="matrix(0.05,0,0,0.05,38,0)" xlink:href="#as"/></g><path fill="#333" d="M24 0v-261h32V0H24" id="at"/><path fill="#333" d="M100-194c63 0 86 42 84 106H49c0 40 14 67 53 68 26 1 43-12 49-29l28 8c-11 28-37 45-77 45C44 4 14-33 15-96c1-61 26-98 85-98zm52 81c6-60-76-77-97-28-3 7-6 17-6 28h103" id="au"/><path fill="#333" d="M24-231v-30h32v30H24zM24 0v-190h32V0H24" id="av"/><g id="l"><use transform="matrix(0.05,0,0,0.05,0,0)" xlink:href="#ao"/><use transform="matrix(0.05,0,0,0.05,9,0)" xlink:href="#ap"/><use transform="matrix(0.05,0,0,0.05,19,0)" xlink:href="#at"/><use transform="matrix(0.05,0,0,0.05,22.95,0)" xlink:href="#at"/><use transform="matrix(0.05,0,0,0.05,26.899999999999995,0)" xlink:href="#au"/><use transform="matrix(0.05,0,0,0.05,36.9,0)" xlink:href="#ao"/><use transform="matrix(0.05,0,0,0.05,45.9,0)" xlink:href="#as"/><use transform="matrix(0.05,0,0,0.05,50.9,0)" xlink:href="#av"/><use transform="matrix(0.05,0,0,0.05,54.85,0)" xlink:href="#ap"/><use transform="matrix(0.05,0,0,0.05,64.85,0)" xlink:href="#aq"/></g><path fill="#333" d="M18-150v-26h174v26H18zm0 90v-26h174v26H18" id="aw"/><use transform="matrix(0.05,0,0,0.05,0,0)" xlink:href="#aw" id="m"/><path fill="#333" d="M26 75v-336h71v23H56V52h41v23H26" id="ax"/><path fill="#333" d="M27 0v-27h64v-190l-56 39v-29l58-41h29v221h61V0H27" id="ay"/><path fill="#333" d="M68-38c1 34 0 65-14 84H32c9-13 17-26 17-46H33v-38h35" id="az"/><g id="n"><use transform="matrix(0.05,0,0,0.05,0,0)" xlink:href="#ax"/><use transform="matrix(0.05,0,0,0.05,5,0)" xlink:href="#ay"/><use transform="matrix(0.05,0,0,0.05,15,0)" xlink:href="#az"/></g><path fill="#333" d="M101-251c82-7 93 87 43 132L82-64C71-53 59-42 53-27h129V0H18c2-99 128-94 128-182 0-28-16-43-45-43s-46 15-49 41l-32-3c6-41 34-60 81-64" id="aA"/><g id="o"><use transform="matrix(0.05,0,0,0.05,0,0)" xlink:href="#aA"/><use transform="matrix(0.05,0,0,0.05,10,0)" xlink:href="#az"/></g><path fill="#333" d="M126-127c33 6 58 20 58 59 0 88-139 92-164 29-3-8-5-16-6-25l32-3c6 27 21 44 54 44 32 0 52-15 52-46 0-38-36-46-79-43v-28c39 1 72-4 72-42 0-27-17-43-46-43-28 0-47 15-49 41l-32-3c6-42 35-63 81-64 48-1 79 21 79 65 0 36-21 52-52 59" id="aB"/><path fill="#333" d="M3 75V52h41v-290H3v-23h71V75H3" id="aC"/><g id="p"><use transform="matrix(0.05,0,0,0.05,0,0)" xlink:href="#aB"/><use transform="matrix(0.05,0,0,0.05,10,0)" xlink:href="#aC"/></g><path fill="#333" d="M141-36C126-15 110 5 73 4 37 3 15-17 15-53c-1-64 63-63 125-63 3-35-9-54-41-54-24 1-41 7-42 31l-33-3c5-37 33-52 76-52 45 0 72 20 72 64v82c-1 20 7 32 28 27v20c-31 9-61-2-59-35zM48-53c0 20 12 33 32 33 41-3 63-29 60-74-43 2-92-5-92 41" id="aD"/><use transform="matrix(0.05,0,0,0.05,0,0)" xlink:href="#aD" id="q"/><path fill="#333" d="M33 0v-38h34V0H33" id="aE"/><path fill="#333" d="M101-234c-31-9-42 10-38 44h38v23H63V0H32v-167H5v-23h27c-7-52 17-82 69-68v24" id="aF"/><path fill="#333" d="M114-163C36-179 61-72 57 0H25l-1-190h30c1 12-1 29 2 39 6-27 23-49 58-41v29" id="aG"/><path fill="#333" d="M87 75C49 33 22-17 22-94c0-76 28-126 65-167h31c-38 41-64 92-64 168S80 34 118 75H87" id="aH"/><path fill="#333" d="M108 0H70L1-190h34L89-25l56-165h34" id="aI"/><g id="r"><use transform="matrix(0.05,0,0,0.05,0,0)" xlink:href="#ao"/><use transform="matrix(0.05,0,0,0.05,9,0)" xlink:href="#ap"/><use transform="matrix(0.05,0,0,0.05,19,0)" xlink:href="#at"/><use transform="matrix(0.05,0,0,0.05,22.95,0)" xlink:href="#at"/><use transform="matrix(0.05,0,0,0.05,26.899999999999995,0)" xlink:href="#au"/><use transform="matrix(0.05,0,0,0.05,36.9,0)" xlink:href="#ao"/><use transform="matrix(0.05,0,0,0.05,45.9,0)" xlink:href="#as"/><use transform="matrix(0.05,0,0,0.05,50.9,0)" xlink:href="#av"/><use transform="matrix(0.05,0,0,0.05,54.85,0)" xlink:href="#ap"/><use transform="matrix(0.05,0,0,0.05,64.85,0)" xlink:href="#aq"/><use transform="matrix(0.05,0,0,0.05,74.85,0)" xlink:href="#aE"/><use transform="matrix(0.05,0,0,0.05,79.85,0)" xlink:href="#aF"/><use transform="matrix(0.05,0,0,0.05,84.85,0)" xlink:href="#av"/><use transform="matrix(0.05,0,0,0.05,88.8,0)" xlink:href="#at"/><use transform="matrix(0.05,0,0,0.05,92.75,0)" xlink:href="#as"/><use transform="matrix(0.05,0,0,0.05,97.75,0)" xlink:href="#au"/><use transform="matrix(0.05,0,0,0.05,107.75,0)" xlink:href="#aG"/><use transform="matrix(0.05,0,0,0.05,113.7,0)" xlink:href="#aH"/><use transform="matrix(0.05,0,0,0.05,119.65,0)" xlink:href="#aI"/></g><path fill="#333" d="M18-27v-27l151-64-151-65v-27l175 74v36" id="aJ"/><g id="s"><use transform="matrix(0.05,0,0,0.05,0,0)" xlink:href="#aw"/><use transform="matrix(0.05,0,0,0.05,10.5,0)" xlink:href="#aJ"/></g><path fill="#333" d="M33-261c38 41 65 92 65 168S71 34 33 75H2C39 34 66-17 66-93S39-220 2-261h31" id="aK"/><g id="t"><use transform="matrix(0.05,0,0,0.05,0,0)" xlink:href="#aE"/><use transform="matrix(0.05,0,0,0.05,5,0)" xlink:href="#aE"/><use transform="matrix(0.05,0,0,0.05,10,0)" xlink:href="#aE"/><use transform="matrix(0.05,0,0,0.05,15,0)" xlink:href="#aK"/></g><use transform="matrix(0.05,0,0,0.05,0,0)" xlink:href="#aD" id="u"/><path fill="#333" d="M141 0L90-78 38 0H4l68-98-65-92h35l48 74 47-74h35l-64 92 68 98h-35" id="aL"/><g id="v"><use transform="matrix(0.05,0,0,0.05,0,0)" xlink:href="#aF"/><use transform="matrix(0.05,0,0,0.05,5,0)" xlink:href="#aH"/><use transform="matrix(0.05,0,0,0.05,10.95,0)" xlink:href="#aL"/><use transform="matrix(0.05,0,0,0.05,19.95,0)" xlink:href="#aK"/></g><path fill="#333" d="M210-169c-67 3-38 105-44 169h-31v-121c0-29-5-50-35-48C34-165 62-65 56 0H25l-1-190h30c1 10-1 24 2 32 10-44 99-50 107 0 11-21 27-35 58-36 85-2 47 119 55 194h-31v-121c0-29-5-49-35-48" id="aM"/><g id="w"><use transform="matrix(0.05,0,0,0.05,0,0)" xlink:href="#aM"/><use transform="matrix(0.05,0,0,0.05,14.950000000000001,0)" xlink:href="#ap"/><use transform="matrix(0.05,0,0,0.05,24.950000000000003,0)" xlink:href="#aI"/><use transform="matrix(0.05,0,0,0.05,33.95,0)" xlink:href="#au"/></g><path fill="#333" d="M140-251c81 0 123 46 123 126C263-46 219 4 140 4 59 4 17-45 17-125s42-126 123-126zm0 227c63 0 89-41 89-101s-29-99-89-99c-61 0-89 39-89 99S79-25 140-24" id="aN"/><path fill="#333" d="M115-194c53 0 69 39 70 98 0 66-23 100-70 100C84 3 66-7 56-30L54 0H23l1-261h32v101c10-23 28-34 59-34zm-8 174c40 0 45-34 45-75 0-40-5-75-45-74-42 0-51 32-51 76 0 43 10 73 51 73" id="aO"/><path fill="#333" d="M30 0v-248h187v28H63v79h144v27H63v87h162V0H30" id="aP"/><g id="x"><use transform="matrix(0.05,0,0,0.05,0,0)" xlink:href="#aN"/><use transform="matrix(0.05,0,0,0.05,14,0)" xlink:href="#aO"/><use transform="matrix(0.05,0,0,0.05,24,0)" xlink:href="#ar"/><use transform="matrix(0.05,0,0,0.05,33,0)" xlink:href="#au"/><use transform="matrix(0.05,0,0,0.05,43,0)" xlink:href="#aG"/><use transform="matrix(0.05,0,0,0.05,48.95,0)" xlink:href="#aI"/><use transform="matrix(0.05,0,0,0.05,57.95,0)" xlink:href="#aD"/><use transform="matrix(0.05,0,0,0.05,67.95,0)" xlink:href="#aO"/><use transform="matrix(0.05,0,0,0.05,77.95,0)" xlink:href="#at"/><use transform="matrix(0.05,0,0,0.05,81.9,0)" xlink:href="#au"/><use transform="matrix(0.05,0,0,0.05,91.9,0)" xlink:href="#aE"/><use transform="matrix(0.05,0,0,0.05,96.9,0)" xlink:href="#aF"/><use transform="matrix(0.05,0,0,0.05,101.9,0)" xlink:href="#aG"/><use transform="matrix(0.05,0,0,0.05,107.85000000000001,0)" xlink:href="#ap"/><use transform="matrix(0.05,0,0,0.05,117.85000000000001,0)" xlink:href="#aM"/><use transform="matrix(0.05,0,0,0.05,132.8,0)" xlink:href="#aP"/><use transform="matrix(0.05,0,0,0.05,144.8,0)" xlink:href="#aI"/><use transform="matrix(0.05,0,0,0.05,153.8,0)" xlink:href="#au"/><use transform="matrix(0.05,0,0,0.05,163.8,0)" xlink:href="#aq"/><use transform="matrix(0.05,0,0,0.05,173.8,0)" xlink:href="#as"/><use transform="matrix(0.05,0,0,0.05,178.8,0)" xlink:href="#aH"/></g><path fill="#333" d="M85-194c31 0 48 13 60 33l-1-100h32l1 261h-30c-2-10 0-23-3-31C134-8 116 4 85 4 32 4 16-35 15-94c0-66 23-100 70-100zm9 24c-40 0-46 34-46 75 0 40 6 74 45 74 42 0 51-32 51-76 0-42-9-74-50-73" id="aQ"/><path fill="#333" d="M84 4C-5 8 30-112 23-190h32v120c0 31 7 50 39 49 72-2 45-101 50-169h31l1 190h-30c-1-10 1-25-2-33-11 22-28 36-60 37" id="aR"/><path fill="#333" d="M47-170H22l-4-78h33" id="aS"/><g id="z"><use transform="matrix(0.05,0,0,0.05,0,0)" xlink:href="#aQ"/><use transform="matrix(0.05,0,0,0.05,10,0)" xlink:href="#ap"/><use transform="matrix(0.05,0,0,0.05,20,0)" xlink:href="#ao"/><use transform="matrix(0.05,0,0,0.05,29,0)" xlink:href="#aR"/><use transform="matrix(0.05,0,0,0.05,39,0)" xlink:href="#aM"/><use transform="matrix(0.05,0,0,0.05,53.95,0)" xlink:href="#au"/><use transform="matrix(0.05,0,0,0.05,63.95,0)" xlink:href="#aq"/><use transform="matrix(0.05,0,0,0.05,73.95,0)" xlink:href="#as"/><use transform="matrix(0.05,0,0,0.05,78.95,0)" xlink:href="#az"/><use transform="matrix(0.05,0,0,0.05,83.95,0)" xlink:href="#aS"/><use transform="matrix(0.05,0,0,0.05,87.35000000000001,0)" xlink:href="#aM"/><use transform="matrix(0.05,0,0,0.05,102.30000000000001,0)" xlink:href="#ap"/><use transform="matrix(0.05,0,0,0.05,112.30000000000001,0)" xlink:href="#aR"/><use transform="matrix(0.05,0,0,0.05,122.30000000000001,0)" xlink:href="#ar"/><use transform="matrix(0.05,0,0,0.05,131.3,0)" xlink:href="#au"/><use transform="matrix(0.05,0,0,0.05,141.3,0)" xlink:href="#aM"/><use transform="matrix(0.05,0,0,0.05,156.25,0)" xlink:href="#ap"/><use transform="matrix(0.05,0,0,0.05,166.25,0)" xlink:href="#aI"/><use transform="matrix(0.05,0,0,0.05,175.25,0)" xlink:href="#au"/><use transform="matrix(0.05,0,0,0.05,185.25,0)" xlink:href="#aS"/></g><use transform="matrix(0.05,0,0,0.05,0,0)" xlink:href="#aK" id="A"/><g id="B"><use transform="matrix(0.05,0,0,0.05,0,0)" xlink:href="#au"/><use transform="matrix(0.05,0,0,0.05,10,0)" xlink:href="#aI"/><use transform="matrix(0.05,0,0,0.05,19,0)" xlink:href="#au"/><use transform="matrix(0.05,0,0,0.05,29,0)" xlink:href="#aq"/><use transform="matrix(0.05,0,0,0.05,39,0)" xlink:href="#as"/></g><g id="C"><use transform="matrix(0.05,0,0,0.05,0,0)" xlink:href="#aM"/><use transform="matrix(0.05,0,0,0.05,14.950000000000001,0)" xlink:href="#ap"/><use transform="matrix(0.05,0,0,0.05,24.950000000000003,0)" xlink:href="#aI"/><use transform="matrix(0.05,0,0,0.05,33.95,0)" xlink:href="#au"/></g><g id="E"><use transform="matrix(0.05,0,0,0.05,0,0)" xlink:href="#aE"/><use transform="matrix(0.05,0,0,0.05,5,0)" xlink:href="#aF"/><use transform="matrix(0.05,0,0,0.05,10,0)" xlink:href="#av"/><use transform="matrix(0.05,0,0,0.05,13.949999999999998,0)" xlink:href="#at"/><use transform="matrix(0.05,0,0,0.05,17.9,0)" xlink:href="#as"/><use transform="matrix(0.05,0,0,0.05,22.9,0)" xlink:href="#au"/><use transform="matrix(0.05,0,0,0.05,32.9,0)" xlink:href="#aG"/><use transform="matrix(0.05,0,0,0.05,38.85,0)" xlink:href="#aH"/><use transform="matrix(0.05,0,0,0.05,44.800000000000004,0)" xlink:href="#au"/></g><g id="F"><use transform="matrix(0.05,0,0,0.05,0,0)" xlink:href="#aE"/><use transform="matrix(0.05,0,0,0.05,5,0)" xlink:href="#aE"/><use transform="matrix(0.05,0,0,0.05,10,0)" xlink:href="#aE"/><use transform="matrix(0.05,0,0,0.05,15,0)" xlink:href="#aK"/></g><g id="G"><use transform="matrix(0.05,0,0,0.05,0,0)" xlink:href="#aE"/><use transform="matrix(0.05,0,0,0.05,5,0)" xlink:href="#ar"/><use transform="matrix(0.05,0,0,0.05,14,0)" xlink:href="#aR"/><use transform="matrix(0.05,0,0,0.05,24,0)" xlink:href="#aO"/><use transform="matrix(0.05,0,0,0.05,34,0)" xlink:href="#ar"/><use transform="matrix(0.05,0,0,0.05,43,0)" xlink:href="#ao"/><use transform="matrix(0.05,0,0,0.05,52,0)" xlink:href="#aG"/><use transform="matrix(0.05,0,0,0.05,57.95,0)" xlink:href="#av"/><use transform="matrix(0.05,0,0,0.05,61.900000000000006,0)" xlink:href="#aO"/><use transform="matrix(0.05,0,0,0.05,71.9,0)" xlink:href="#au"/><use transform="matrix(0.05,0,0,0.05,81.9,0)" xlink:href="#aH"/><use transform="matrix(0.05,0,0,0.05,87.85000000000001,0)" xlink:href="#aE"/><use transform="matrix(0.05,0,0,0.05,92.85000000000001,0)" xlink:href="#aE"/><use transform="matrix(0.05,0,0,0.05,97.85000000000001,0)" xlink:href="#aE"/><use transform="matrix(0.05,0,0,0.05,102.85000000000001,0)" xlink:href="#aK"/></g><path fill="#333" d="M106-169C34-169 62-67 57 0H25v-261h32l-1 103c12-21 28-36 61-36 89 0 53 116 60 194h-32v-121c2-32-8-49-39-48" id="aT"/><g id="H"><use transform="matrix(0.05,0,0,0.05,0,0)" xlink:href="#aF"/><use transform="matrix(0.05,0,0,0.05,5,0)" xlink:href="#aH"/><use transform="matrix(0.05,0,0,0.05,10.95,0)" xlink:href="#aL"/><use transform="matrix(0.05,0,0,0.05,19.95,0)" xlink:href="#aK"/><use transform="matrix(0.05,0,0,0.05,25.899999999999995,0)" xlink:href="#aE"/><use transform="matrix(0.05,0,0,0.05,30.899999999999995,0)" xlink:href="#as"/><use transform="matrix(0.05,0,0,0.05,35.9,0)" xlink:href="#aT"/><use transform="matrix(0.05,0,0,0.05,45.9,0)" xlink:href="#au"/><use transform="matrix(0.05,0,0,0.05,55.900000000000006,0)" xlink:href="#aq"/><use transform="matrix(0.05,0,0,0.05,65.9,0)" xlink:href="#aH"/><use transform="matrix(0.05,0,0,0.05,71.85000000000001,0)" xlink:href="#aE"/><use transform="matrix(0.05,0,0,0.05,76.85000000000001,0)" xlink:href="#aE"/><use transform="matrix(0.05,0,0,0.05,81.85000000000001,0)" xlink:href="#aE"/><use transform="matrix(0.05,0,0,0.05,86.85000000000001,0)" xlink:href="#aK"/></g></defs></g></svg>